PathFileType	4	(X/Y/Z)	/Users/itak/Documents/Research/Walk-IL/dataset/trc/00347_00011.trc
DataRate	CameraRate	NumFrames	NumMarkers	Units	OrigDataRate	OrigDataStartFrame	OrigNumFrames
100.000000	100.000000	4	53	mm	100.000000	183	732
Frame#	Time	RPSI			LPSI			STRN			T10			C7			CLAV			RBAK			LBAK			LSHO			LUPA			LAEL			LAOL			LWTS			LWPS			LFRA			LIFD			LHPS			LHTS			RSHO			RUPA			RAEL			RAOL			RWTS			RWPS			RFRA			RHTS			RHPS			RBHD			LFHD			RFHD			LBHD			LHIP			RHIP			RASI			LASI			LKNE			LTHI			LANK			LTIP			LTOE			LMT1			LMT5			LHEE			RKNE			RANK			RTIP			RTOE			RMT1			RMT5			RHEE			L3			RIFD			RTHI			
		X1	Y1	Z1	X2	Y2	Z2	X3	Y3	Z3	X4	Y4	Z4	X5	Y5	Z5	X6	Y6	Z6	X7	Y7	Z7	X8	Y8	Z8	X9	Y9	Z9	X10	Y10	Z10	X11	Y11	Z11	X12	Y12	Z12	X13	Y13	Z13	X14	Y14	Z14	X15	Y15	Z15	X16	Y16	Z16	X17	Y17	Z17	X18	Y18	Z18	X19	Y19	Z19	X20	Y20	Z20	X21	Y21	Z21	X22	Y22	Z22	X23	Y23	Z23	X24	Y24	Z24	X25	Y25	Z25	X26	Y26	Z26	X27	Y27	Z27	X28	Y28	Z28	X29	Y29	Z29	X30	Y30	Z30	X31	Y31	Z31	X32	Y32	Z32	X33	Y33	Z33	X34	Y34	Z34	X35	Y35	Z35	X36	Y36	Z36	X37	Y37	Z37	X38	Y38	Z38	X39	Y39	Z39	X40	Y40	Z40	X41	Y41	Z41	X42	Y42	Z42	X43	Y43	Z43	X44	Y44	Z44	X45	Y45	Z45	X46	Y46	Z46	X47	Y47	Z47	X48	Y48	Z48	X49	Y49	Z49	X50	Y50	Z50	X51	Y51	Z51	X52	Y52	Z52	X53	Y53	Z53	

184	1.83	33.28582382202148	960.5579223632812	795.2421264648438	-49.30657196044922	967.3694458007812	896.2523803710938	-189.8165740966797	1206.900390625	696.5267944335938	3.883801221847534	1150.005249023438	842.110595703125	-45.83083343505859	1396.622924804688	821.4300537109375	-161.8448028564453	1334.041748046875	721.7676391601562	40.76108932495117	1259.508056640625	800.9008178710938	-100.313591003418	1359.807739257812	906.1936645507812	-201.9252166748047	1376.114013671875	897.6741943359375	-223.9573059082031	1260.412231445312	968.7699584960938	-237.2681732177734	1056.73974609375	987.740478515625	-153.9069366455078	1047.111450195312	977.1814575195312	-293.6681518554688	814.8213500976562	906.13818359375	-289.1999816894531	803.179443359375	973.65771484375	-252.4113922119141	951.6639404296875	991.4544677734375	-298.115478515625	655.4500732421875	897.4050903320312	-285.9086608886719	732.9583129882812	969.617919921875	-315.4186706542969	737.6076049804688	912.2589111328125	11.87327575683594	1382.221313476562	658.5253295898438	61.02840042114258	1317.794799804688	614.8538208007812	74.72481536865234	1050.238037109375	576.6912231445312	62.17916870117188	1039.348510742188	669.5684814453125	-86.83621978759766	860.3370361328125	533.7810668945312	-25.43756675720215	828.432861328125	501.3910217285156	50.98335266113281	986.4402465820312	551.1454467773438	-128.3133697509766	770.1309814453125	494.9861145019531	-61.28432846069336	752.0150756835938	487.7567138671875	-26.04590225219727	1594.183471679688	727.0681762695312	-229.2186279296875	1605.328857421875	680.7709350585938	-148.2041778564453	1600.319580078125	619.51806640625	-122.71435546875	1597.631225585938	834.2802124023438	-187.5454559326172	923.2747802734375	919.4193115234375	39.4076042175293	897.9959716796875	663.3203735351562	-67.34528350830078	928.58251953125	626.5685424804688	-235.6461486816406	946.2622680664062	794.7701416015625	-361.7350463867188	505.3361206054688	803.0013427734375	-329.2421569824219	629.719970703125	833.5576782226562	-241.4466705322266	115.1164016723633	967.3771362304688	-314.6207275390625	302.4486694335938	891.561279296875	-379.0856018066406	52.70150375366211	815.5562133789062	-297.5594177246094	50.83660125732422	819.0814819335938	-350.2447204589844	79.55039215087891	915.7338256835938	-175.0519866943359	110.5458068847656	930.4641723632812	-73.54806518554688	436.3123168945312	712.6465454101562	-56.65229415893555	49.87722778320312	854.578369140625	-98.75924682617188	318.1826782226562	743.231201171875	-240.2478942871094	44.98358154296875	774.1864013671875	-223.2055053710938	39.05031585693359	842.1255493164062	-123.9751281738281	38.77042388916016	777.48193359375	-48.01137924194336	49.53445816040039	922.5621948242188	0.804537832736969	1031.920166015625	843.0376586914062	-139.5655517578125	698.0289916992188	512.2142944335938	-43.50664520263672	687.4447021484375	638.1945190429688	
185	1.84	27.20901107788086	960.5757446289062	792.2861328125	-57.05434036254883	967.5265502929688	891.9262084960938	-194.1148071289062	1206.557495117188	689.8525390625	-2.023182392120361	1149.850830078125	838.1752319335938	-51.84197235107422	1396.385986328125	816.3174438476562	-166.4857482910156	1333.772216796875	715.3671875	35.31580352783203	1259.423095703125	796.9078979492188	-106.96533203125	1359.602905273438	900.6153564453125	-208.5577545166016	1375.743041992188	890.9324340820312	-231.1038970947266	1260.244995117188	961.9917602539062	-243.5283508300781	1056.604125976562	981.6383666992188	-159.8731689453125	1047.481079101562	972.1058959960938	-296.6145629882812	812.9934692382812	902.0545043945312	-293.2466430664062	802.4515380859375	969.823486328125	-258.0091857910156	951.5693969726562	986.04541015625	-299.3134155273438	653.5030517578125	895.7493896484375	-289.2125244140625	732.1976928710938	966.9097290039062	-317.6495666503906	735.680419921875	909.0310668945312	7.869755268096924	1382.0146484375	654.1256713867188	57.44395446777344	1317.542358398438	610.9562377929688	70.75153350830078	1049.948608398438	572.6575317382812	57.70122909545898	1039.087158203125	665.4658813476562	-91.68376159667969	861.0950317382812	528.7941284179688	-30.33350563049316	828.8133544921875	496.6327514648438	46.84342575073242	986.306396484375	546.937744140625	-133.6025085449219	771.2418823242188	489.6624755859375	-66.67247009277344	752.6637573242188	482.7209777832031	-30.92536163330078	1593.744995117188	722.5975952148438	-233.57177734375	1605.19287109375	674.017578125	-151.8503875732422	1600.22216796875	613.728515625	-128.7684020996094	1597.064697265625	828.7068481445312	-195.7063293457031	923.4866943359375	912.6090087890625	35.7199592590332	897.630126953125	660.6803588867188	-70.61879730224609	928.1255493164062	621.6626586914062	-241.4647979736328	946.2671508789062	787.0548095703125	-367.5692138671875	505.27197265625	792.2741088867188	-335.7652893066406	630.0975952148438	823.9293823242188	-268.9242858886719	104.9105224609375	946.0882568359375	-331.3030700683594	298.0328063964844	875.51318359375	-404.9473876953125	54.48246765136719	788.4739379882812	-323.5602722167969	48.63255310058594	794.21044921875	-377.6624145507812	76.31592559814453	890.2109985351562	-201.8361511230469	98.52882385253906	910.91015625	-74.59425354003906	435.9655456542969	710.8955688476562	-56.57143783569336	49.9384651184082	854.4559936523438	-99.49901580810547	317.8014526367188	742.0095825195312	-240.2212066650391	44.96208572387695	774.1491088867188	-223.1701354980469	39.08988571166992	842.0322265625	-123.9017562866211	38.71124649047852	777.4110717773438	-47.82388687133789	49.80060577392578	922.4763793945312	-5.080741405487061	1031.997680664062	839.6693115234375	-145.462158203125	699.19970703125	506.7679138183594	-45.76184463500977	686.7858276367188	635.6763305664062	
186	1.85	21.03948020935059	960.4619140625	789.23095703125	-64.89581298828125	967.5814819335938	887.4373168945312	-198.3770751953125	1206.048706054688	683.0967407226562	-7.998584270477295	1149.557861328125	834.23193359375	-57.86208724975586	1396.008178710938	811.1249389648438	-171.0959167480469	1333.334350585938	708.8690185546875	29.85617828369141	1259.182983398438	792.8670043945312	-113.6255416870117	1359.26025390625	894.951171875	-215.2180786132812	1375.231567382812	884.064697265625	-238.3322143554688	1259.915161132812	955.0762939453125	-249.8820495605469	1056.335815429688	975.3506469726562	-165.9072875976562	1047.709106445312	966.9598999023438	-299.5377807617188	811.0299072265625	897.859130859375	-297.361328125	801.6055297851562	965.854248046875	-263.6982421875	951.3325805664062	980.4769287109375	-300.4253845214844	651.4717407226562	894.0657348632812	-292.5695495605469	731.3444213867188	964.1205444335938	-319.8265380859375	733.613525390625	905.7061157226562	3.869565010070801	1381.630737304688	649.6793212890625	53.86269760131836	1317.116943359375	607.0433349609375	66.86207580566406	1049.484008789062	568.6539916992188	53.29745101928711	1038.673950195312	661.3999633789062	-96.32032775878906	861.5595092773438	523.891357421875	-35.00733947753906	828.9391479492188	491.9595336914062	42.82492828369141	985.977294921875	542.77197265625	-138.609130859375	772.0126342773438	484.4744567871094	-71.75923156738281	753.027587890625	477.7949523925781	-35.80784225463867	1593.153564453125	718.076171875	-237.9107818603516	1604.903686523438	667.1600952148438	-155.4616394042969	1599.97412109375	607.87939453125	-134.8504028320312	1596.334106445312	823.0585327148438	-203.8505554199219	923.5077514648438	905.720458984375	31.94080924987793	897.1612548828125	657.9923706054688	-73.96159362792969	927.5455932617188	616.7128295898438	-247.3151245117188	946.0324096679688	779.2728271484375	-372.9493408203125	504.6171569824219	781.9622192382812	-341.7863159179688	629.9579467773438	814.6642456054688	-296.2349243164062	95.278076171875	923.390625	-347.7040405273438	293.6523742675781	858.9127807617188	-429.1119079589844	56.92523574829102	759.9019775390625	-348.1268310546875	47.34966278076172	767.9263916015625	-404.1320190429688	73.56781005859375	863.1262817382812	-228.4998168945312	87.28152465820312	890.1036376953125	-75.83017730712891	435.5707397460938	708.9876708984375	-56.49519348144531	49.9951057434082	854.3309936523438	-100.3999786376953	317.3474426269531	740.6514892578125	-240.190673828125	44.92745971679688	774.1203002929688	-223.1180877685547	39.13799667358398	841.947265625	-123.8312072753906	38.64513778686523	777.338623046875	-47.63459396362305	50.09205627441406	922.3653564453125	-11.14919471740723	1031.923461914062	836.1591186523438	-151.0178375244141	700.0276489257812	501.4757995605469	-48.07102966308594	686.043212890625	633.065185546875	
187	1.86	14.77341270446777	960.2161865234375	786.0647583007812	-72.82485961914062	967.506103515625	882.7706909179688	-202.6203155517578	1205.370361328125	676.2589721679688	-14.03235149383545	1149.134765625	830.2625732421875	-63.88570785522461	1395.475830078125	805.8439331054688	-175.68896484375	1332.715454101562	702.2894897460938	24.38166427612305	1258.7734375	788.773193359375	-120.2937164306641	1358.765258789062	889.1898193359375	-221.9089965820312	1374.569702148438	877.06689453125	-245.6359405517578	1259.411865234375	948.02783203125	-256.3157348632812	1055.9169921875	968.8826293945312	-172.0070037841797	1047.776733398438	961.71240234375	-302.4793090820312	808.9395751953125	893.573486328125	-301.5439147949219	800.6326904296875	961.7554321289062	-269.4542236328125	950.9345703125	974.767333984375	-301.4768981933594	649.359375	892.3367309570312	-295.9784545898438	730.3870239257812	961.2466430664062	-321.9852294921875	731.41162109375	902.2838134765625	-0.1339941173791885	1381.05810546875	645.180419921875	50.27704620361328	1316.507080078125	603.1067504882812	63.06003570556641	1048.830444335938	564.6802368164062	48.96846008300781	1038.095825195312	657.3721923828125	-100.746940612793	861.7166137695312	519.0638427734375	-39.45558166503906	828.7979736328125	487.3719787597656	38.93393325805664	985.438232421875	538.6494140625	-143.331787109375	772.4298706054688	479.4132995605469	-76.54607391357422	753.0903930664062	472.97802734375	-40.69914627075195	1592.413452148438	713.500732421875	-242.236572265625	1604.44580078125	660.2069091796875	-159.0464324951172	1599.569213867188	601.9646606445312	-140.9583587646484	1595.436279296875	817.3369140625	-211.9752197265625	923.3148803710938	898.7459106445312	28.06636238098145	896.591796875	655.24609375	-77.35028076171875	926.8360595703125	611.7410888671875	-253.1868743896484	945.5436401367188	771.4374389648438	-377.9877319335938	503.3883361816406	772.0496215820312	-347.3125305175781	629.2799072265625	805.7982177734375	-323.2043151855469	86.44605255126953	899.310791015625	-363.7752685546875	289.4392395019531	841.7700805664062	-451.4151000976562	60.17101669311523	730.0034790039062	-371.0985107421875	47.10340881347656	740.4086303710938	-429.5050048828125	71.52898406982422	834.5574340820312	-254.8349151611328	76.99266052246094	868.099609375	-77.25888824462891	435.1012268066406	706.8843994140625	-56.42850875854492	50.0373420715332	854.203857421875	-101.4684371948242	316.8122253417969	739.1431274414062	-240.1500854492188	44.89028167724609	774.095703125	-223.0517425537109	39.1850471496582	841.88134765625	-123.7631149291992	38.57249069213867	777.26416015625	-47.45009613037109	50.40356063842773	922.2297973632812	-17.42167282104492	1031.673706054688	832.4799194335938	-156.2420806884766	700.4971923828125	496.3229675292969	-50.44569778442383	685.2142333984375	630.335205078125	
